<?xml version="1.0" encoding="UTF-8" standalone="no"?>
<!-- Created with Inkscape (http://www.inkscape.org/) -->

<svg
   xmlns:dc="http://purl.org/dc/elements/1.1/"
   xmlns:cc="http://creativecommons.org/ns#"
   xmlns:rdf="http://www.w3.org/1999/02/22-rdf-syntax-ns#"
   xmlns:svg="http://www.w3.org/2000/svg"
   xmlns="http://www.w3.org/2000/svg"
   xmlns:sodipodi="http://sodipodi.sourceforge.net/DTD/sodipodi-0.dtd"
   xmlns:inkscape="http://www.inkscape.org/namespaces/inkscape"
   width="744.09448819"
   height="1052.3622047"
   id="svg2"
   version="1.1"
   inkscape:version="0.48.4 r9939"
   sodipodi:docname="New document 1">
  <defs
     id="defs4" />
  <sodipodi:namedview
     id="base"
     pagecolor="#ffffff"
     bordercolor="#666666"
     borderopacity="1.0"
     inkscape:pageopacity="0.0"
     inkscape:pageshadow="2"
     inkscape:zoom="0.35"
     inkscape:cx="1471.6612"
     inkscape:cy="362.10066"
     inkscape:document-units="px"
     inkscape:current-layer="layer1"
     showgrid="false"
     inkscape:window-width="1920"
     inkscape:window-height="1004"
     inkscape:window-x="0"
     inkscape:window-y="24"
     inkscape:window-maximized="1" />
  <metadata
     id="metadata7">
    <rdf:RDF>
      <cc:Work
         rdf:about="">
        <dc:format>image/svg+xml</dc:format>
        <dc:type
           rdf:resource="http://purl.org/dc/dcmitype/StillImage" />
        <dc:title></dc:title>
      </cc:Work>
    </rdf:RDF>
  </metadata>
  <g
     inkscape:label="Layer 1"
     inkscape:groupmode="layer"
     id="layer1">
    <path
       style="fill:#52191a"
       d="m 483.10263,148.69643 c -13.1255,0.003 -26.266,0.85438 -34.0624,2.53125 -84.591,18.19374 -141.5,88.22349 -141.5,174.15625 0,47.2069 16.1859,88.73603 47.0937,120.9375 l 9.5,9.90625 8.6875,2.03125 c 11.9888,2.79355 33.9059,5.83149 51.2188,7.09375 7.9749,0.58145 16.525,1.23419 19,1.4375 12.6788,1.04149 94.4569,-0.31989 109,-1.8125 14.8278,-1.52181 38.4202,-5.41428 46.0937,-7.59375 4.2374,-1.20355 16.5376,-13.50212 25.1563,-25.15625 77.9217,-105.36599 22.0536,-253.16091 -106.25,-281.03125 -7.7014,-1.67289 -20.812,-2.50336 -33.9376,-2.5 z m -1.6562,11.25 c 41.7348,-0.46076 83.7404,15.05821 116.4375,47.40625 51.9331,51.37875 64.536,129.26708 31.5625,195.125 -10.602,21.17554 -31.817,45.90907 -41,47.78125 -8.5772,1.74866 -32.2492,4.95622 -45.4062,6.15625 -11.8738,1.08299 -87.4619,2.15422 -97,1.375 -2.475,-0.2022 -10.8001,-0.85358 -18.5,-1.4375 -25.8531,-1.96053 -51.3419,-5.79921 -56.625,-8.53125 -5.9088,-3.05552 -24.2805,-26.47833 -32.75,-41.75 -29.8696,-53.85859 -25.6385,-125.93646 10.3437,-176.1875 32.6178,-45.5524 82.5679,-69.38142 132.9375,-69.9375 z m -39.2188,25.96875 -5.3437,1.875 c -60.0246,20.94305 -101.562,83.12383 -98.5625,147.59375 0.7372,15.84536 5.6404,40.00475 9.375,46.25 0.8167,1.36561 17.3355,0.88853 17.3125,-0.5 -0.0115,-0.6875 -1.111,-4.94903 -2.4375,-9.46875 -6.1953,-21.10855 -7.3947,-53.36992 -2.7188,-73.375 10.8577,-46.45054 37.1504,-79.44437 83.1563,-104.40625 3.2704,-1.77445 3.465,-2.74249 1.1563,-5.59375 l -1.9376,-2.375 z m -77.875,211.46875 c -6.1295,0 -8.3124,0.32907 -8.3124,1.28125 0,2.39308 10.134,17.8341 12.3124,18.75 2.2102,0.92931 14.363,0.60586 15.375,-0.40625 0.3092,-0.30919 -1.0008,-2.9333 -2.9062,-5.84375 -1.9054,-2.91045 -4.5229,-7.19375 -5.8125,-9.53125 l -2.3437,-4.25 -8.3126,0 z m 238.2188,70 c -0.2537,0 -4.1912,0.85485 -8.75,1.90625 -54.0016,12.45448 -166.4015,13.01004 -221,1.09375 -5.0573,-1.10377 -9.3589,-2 -9.5312,-2 -0.1726,0 -0.1779,11.78781 -0.0313,26.21875 l 0.2813,26.25 4.7812,0.6875 c 8.2875,1.18473 33.4806,2.98494 53.7188,3.84375 51.0318,2.16557 166.5776,-0.81852 179.25,-4.625 1.6093,-0.48338 1.75,-2.6305 1.75,-26.9375 -10e-5,-14.53793 -0.2151,-26.4375 -0.4688,-26.4375 z"
       id="path3037"
       inkscape:connector-curvature="0" />
  </g>
</svg>
